<mxfile host="65bd71144e">
    <diagram id="nrbl7JRSLwaBMM6R2UeI" name="Page-1">
        <mxGraphModel dx="1240" dy="594" grid="1" gridSize="10" guides="1" tooltips="1" connect="1" arrows="1" fold="1" page="1" pageScale="1" pageWidth="1169" pageHeight="827" math="0" shadow="0">
            <root>
                <mxCell id="0"/>
                <mxCell id="1" parent="0"/>
                <mxCell id="OrHOSc57DQflPd_nP3Bi-14" style="edgeStyle=none;rounded=0;orthogonalLoop=1;jettySize=auto;html=1;exitX=0.5;exitY=1;exitDx=0;exitDy=0;entryX=0.5;entryY=0;entryDx=0;entryDy=0;endArrow=none;endFill=0;" parent="1" source="OrHOSc57DQflPd_nP3Bi-1" target="OrHOSc57DQflPd_nP3Bi-9" edge="1">
                    <mxGeometry relative="1" as="geometry"/>
                </mxCell>
                <mxCell id="OrHOSc57DQflPd_nP3Bi-1" value="ROOM" style="whiteSpace=wrap;html=1;align=center;" parent="1" vertex="1">
                    <mxGeometry x="280" y="190" width="100" height="40" as="geometry"/>
                </mxCell>
                <mxCell id="OrHOSc57DQflPd_nP3Bi-12" style="rounded=0;orthogonalLoop=1;jettySize=auto;html=1;exitX=0.5;exitY=1;exitDx=0;exitDy=0;entryX=0.5;entryY=0;entryDx=0;entryDy=0;endArrow=none;endFill=0;" parent="1" source="OrHOSc57DQflPd_nP3Bi-2" target="OrHOSc57DQflPd_nP3Bi-11" edge="1">
                    <mxGeometry relative="1" as="geometry"/>
                </mxCell>
                <mxCell id="OrHOSc57DQflPd_nP3Bi-2" value="HOSTELLER" style="whiteSpace=wrap;html=1;align=center;" parent="1" vertex="1">
                    <mxGeometry x="660" y="210" width="100" height="40" as="geometry"/>
                </mxCell>
                <mxCell id="OrHOSc57DQflPd_nP3Bi-18" style="edgeStyle=none;rounded=0;orthogonalLoop=1;jettySize=auto;html=1;exitX=1;exitY=0.5;exitDx=0;exitDy=0;entryX=0;entryY=0.5;entryDx=0;entryDy=0;endArrow=none;endFill=0;" parent="1" source="OrHOSc57DQflPd_nP3Bi-3" target="OrHOSc57DQflPd_nP3Bi-17" edge="1">
                    <mxGeometry relative="1" as="geometry"/>
                </mxCell>
                <mxCell id="OrHOSc57DQflPd_nP3Bi-3" value="STAFF" style="whiteSpace=wrap;html=1;align=center;" parent="1" vertex="1">
                    <mxGeometry x="180" y="520" width="100" height="40" as="geometry"/>
                </mxCell>
                <mxCell id="OrHOSc57DQflPd_nP3Bi-4" value="INVOICE" style="whiteSpace=wrap;html=1;align=center;" parent="1" vertex="1">
                    <mxGeometry x="620" y="590" width="100" height="40" as="geometry"/>
                </mxCell>
                <mxCell id="OrHOSc57DQflPd_nP3Bi-21" style="edgeStyle=none;rounded=0;orthogonalLoop=1;jettySize=auto;html=1;exitX=1;exitY=1;exitDx=0;exitDy=0;entryX=0.5;entryY=0;entryDx=0;entryDy=0;endArrow=none;endFill=0;" parent="1" source="OrHOSc57DQflPd_nP3Bi-5" target="OrHOSc57DQflPd_nP3Bi-20" edge="1">
                    <mxGeometry relative="1" as="geometry"/>
                </mxCell>
                <mxCell id="OrHOSc57DQflPd_nP3Bi-5" value="ALLOCATION" style="whiteSpace=wrap;html=1;align=center;" parent="1" vertex="1">
                    <mxGeometry x="420" y="350" width="100" height="40" as="geometry"/>
                </mxCell>
                <mxCell id="OrHOSc57DQflPd_nP3Bi-23" style="edgeStyle=none;rounded=0;orthogonalLoop=1;jettySize=auto;html=1;exitX=1;exitY=0.5;exitDx=0;exitDy=0;entryX=0;entryY=0.5;entryDx=0;entryDy=0;endArrow=none;endFill=0;" parent="1" source="OrHOSc57DQflPd_nP3Bi-9" target="OrHOSc57DQflPd_nP3Bi-5" edge="1">
                    <mxGeometry relative="1" as="geometry"/>
                </mxCell>
                <mxCell id="OrHOSc57DQflPd_nP3Bi-9" value="IS_ALLOCATED" style="shape=rhombus;perimeter=rhombusPerimeter;whiteSpace=wrap;html=1;align=center;" parent="1" vertex="1">
                    <mxGeometry x="180" y="320" width="120" height="60" as="geometry"/>
                </mxCell>
                <mxCell id="OrHOSc57DQflPd_nP3Bi-24" style="edgeStyle=none;rounded=0;orthogonalLoop=1;jettySize=auto;html=1;exitX=0;exitY=0.5;exitDx=0;exitDy=0;entryX=1;entryY=0.5;entryDx=0;entryDy=0;endArrow=none;endFill=0;" parent="1" source="OrHOSc57DQflPd_nP3Bi-11" target="OrHOSc57DQflPd_nP3Bi-5" edge="1">
                    <mxGeometry relative="1" as="geometry"/>
                </mxCell>
                <mxCell id="OrHOSc57DQflPd_nP3Bi-11" value="GETS" style="shape=rhombus;perimeter=rhombusPerimeter;whiteSpace=wrap;html=1;align=center;" parent="1" vertex="1">
                    <mxGeometry x="640" y="350" width="120" height="60" as="geometry"/>
                </mxCell>
                <mxCell id="OrHOSc57DQflPd_nP3Bi-19" style="edgeStyle=none;rounded=0;orthogonalLoop=1;jettySize=auto;html=1;exitX=1;exitY=0.5;exitDx=0;exitDy=0;endArrow=none;endFill=0;entryX=0.5;entryY=1;entryDx=0;entryDy=0;" parent="1" source="OrHOSc57DQflPd_nP3Bi-17" target="OrHOSc57DQflPd_nP3Bi-5" edge="1">
                    <mxGeometry relative="1" as="geometry">
                        <mxPoint x="467" y="453" as="targetPoint"/>
                    </mxGeometry>
                </mxCell>
                <mxCell id="OrHOSc57DQflPd_nP3Bi-17" value="CREATES" style="shape=rhombus;perimeter=rhombusPerimeter;whiteSpace=wrap;html=1;align=center;" parent="1" vertex="1">
                    <mxGeometry x="320" y="490" width="120" height="60" as="geometry"/>
                </mxCell>
                <mxCell id="OrHOSc57DQflPd_nP3Bi-22" style="edgeStyle=none;rounded=0;orthogonalLoop=1;jettySize=auto;html=1;exitX=0.5;exitY=1;exitDx=0;exitDy=0;entryX=0.5;entryY=0;entryDx=0;entryDy=0;endArrow=none;endFill=0;" parent="1" source="OrHOSc57DQflPd_nP3Bi-20" target="OrHOSc57DQflPd_nP3Bi-4" edge="1">
                    <mxGeometry relative="1" as="geometry"/>
                </mxCell>
                <mxCell id="OrHOSc57DQflPd_nP3Bi-20" value="GENERATES" style="shape=rhombus;perimeter=rhombusPerimeter;whiteSpace=wrap;html=1;align=center;" parent="1" vertex="1">
                    <mxGeometry x="510" y="490" width="120" height="60" as="geometry"/>
                </mxCell>
                <mxCell id="OrHOSc57DQflPd_nP3Bi-28" style="edgeStyle=none;rounded=0;orthogonalLoop=1;jettySize=auto;html=1;exitX=0.5;exitY=1;exitDx=0;exitDy=0;entryX=0.86;entryY=-0.05;entryDx=0;entryDy=0;entryPerimeter=0;endArrow=none;endFill=0;" parent="1" source="OrHOSc57DQflPd_nP3Bi-25" target="OrHOSc57DQflPd_nP3Bi-1" edge="1">
                    <mxGeometry relative="1" as="geometry"/>
                </mxCell>
                <mxCell id="OrHOSc57DQflPd_nP3Bi-25" value="Type" style="ellipse;whiteSpace=wrap;html=1;align=center;" parent="1" vertex="1">
                    <mxGeometry x="370" y="110" width="70" height="30" as="geometry"/>
                </mxCell>
                <mxCell id="OrHOSc57DQflPd_nP3Bi-27" style="edgeStyle=none;rounded=0;orthogonalLoop=1;jettySize=auto;html=1;exitX=0;exitY=1;exitDx=0;exitDy=0;entryX=1;entryY=0.25;entryDx=0;entryDy=0;endArrow=none;endFill=0;" parent="1" source="OrHOSc57DQflPd_nP3Bi-26" target="OrHOSc57DQflPd_nP3Bi-1" edge="1">
                    <mxGeometry relative="1" as="geometry"/>
                </mxCell>
                <mxCell id="OrHOSc57DQflPd_nP3Bi-26" value="Room_No" style="ellipse;whiteSpace=wrap;html=1;align=center;fontStyle=4;" parent="1" vertex="1">
                    <mxGeometry x="450" y="160" width="60" height="30" as="geometry"/>
                </mxCell>
                <mxCell id="OrHOSc57DQflPd_nP3Bi-30" style="edgeStyle=none;rounded=0;orthogonalLoop=1;jettySize=auto;html=1;exitX=0.5;exitY=1;exitDx=0;exitDy=0;entryX=0.39;entryY=-0.075;entryDx=0;entryDy=0;entryPerimeter=0;endArrow=none;endFill=0;" parent="1" source="OrHOSc57DQflPd_nP3Bi-29" target="OrHOSc57DQflPd_nP3Bi-1" edge="1">
                    <mxGeometry relative="1" as="geometry"/>
                </mxCell>
                <mxCell id="OrHOSc57DQflPd_nP3Bi-29" value="Description" style="ellipse;shape=doubleEllipse;margin=3;whiteSpace=wrap;html=1;align=center;" parent="1" vertex="1">
                    <mxGeometry x="250" y="100" width="80" height="30" as="geometry"/>
                </mxCell>
                <mxCell id="3" style="edgeStyle=none;html=1;exitX=0.5;exitY=1;exitDx=0;exitDy=0;endArrow=none;endFill=0;" edge="1" parent="1" source="2" target="OrHOSc57DQflPd_nP3Bi-2">
                    <mxGeometry relative="1" as="geometry"/>
                </mxCell>
                <mxCell id="2" value="Hosteller_Id" style="ellipse;whiteSpace=wrap;html=1;align=center;fontStyle=4;" vertex="1" parent="1">
                    <mxGeometry x="620" y="130" width="90" height="30" as="geometry"/>
                </mxCell>
                <mxCell id="11" style="edgeStyle=none;html=1;exitX=0.5;exitY=1;exitDx=0;exitDy=0;entryX=0.75;entryY=0;entryDx=0;entryDy=0;endArrow=none;endFill=0;" edge="1" parent="1" source="4" target="OrHOSc57DQflPd_nP3Bi-2">
                    <mxGeometry relative="1" as="geometry"/>
                </mxCell>
                <mxCell id="4" value="Name" style="ellipse;whiteSpace=wrap;html=1;align=center;" vertex="1" parent="1">
                    <mxGeometry x="760" y="150" width="70" height="30" as="geometry"/>
                </mxCell>
                <mxCell id="8" style="edgeStyle=none;html=1;exitX=0.5;exitY=1;exitDx=0;exitDy=0;entryX=0.38;entryY=-0.039;entryDx=0;entryDy=0;entryPerimeter=0;endArrow=none;endFill=0;" edge="1" parent="1" source="5" target="4">
                    <mxGeometry relative="1" as="geometry"/>
                </mxCell>
                <mxCell id="5" value="First_Name" style="ellipse;whiteSpace=wrap;html=1;align=center;" vertex="1" parent="1">
                    <mxGeometry x="740" y="100" width="70" height="30" as="geometry"/>
                </mxCell>
                <mxCell id="9" style="edgeStyle=none;html=1;exitX=0;exitY=1;exitDx=0;exitDy=0;endArrow=none;endFill=0;" edge="1" parent="1" source="6" target="4">
                    <mxGeometry relative="1" as="geometry"/>
                </mxCell>
                <mxCell id="6" value="Middle_Name" style="ellipse;whiteSpace=wrap;html=1;align=center;" vertex="1" parent="1">
                    <mxGeometry x="840" y="100" width="70" height="30" as="geometry"/>
                </mxCell>
                <mxCell id="10" style="edgeStyle=none;html=1;exitX=0;exitY=0.5;exitDx=0;exitDy=0;entryX=1;entryY=0.5;entryDx=0;entryDy=0;endArrow=none;endFill=0;" edge="1" parent="1" source="7" target="4">
                    <mxGeometry relative="1" as="geometry"/>
                </mxCell>
                <mxCell id="7" value="Last_Name" style="ellipse;whiteSpace=wrap;html=1;align=center;" vertex="1" parent="1">
                    <mxGeometry x="860" y="150" width="70" height="30" as="geometry"/>
                </mxCell>
            </root>
        </mxGraphModel>
    </diagram>
</mxfile>